<?xml version="1.0" encoding="UTF-8"?>
<!DOCTYPE svg PUBLIC "-//W3C//DTD SVG 1.1//EN" "http://www.w3.org/Graphics/SVG/1.1/DTD/svg11.dtd">
<svg version="1.2" width="30mm" height="30mm" viewBox="0 0 26238 26238" preserveAspectRatio="xMidYMid" fill-rule="evenodd" stroke-width="30" stroke-linejoin="round" xmlns="http://www.w3.org/2000/svg" xmlns:ooo="http://xml.openoffice.org/svg/export" xmlns:xlink="http://www.w3.org/1999/xlink" xmlns:presentation="http://sun.com/xmlns/staroffice/presentation" xmlns:smil="http://www.w3.org/2001/SMIL20/" xmlns:anim="urn:oasis:names:tc:opendocument:xmlns:animation:1.0" xml:space="preserve">
 <defs class="ClipPathGroup">
  <clipPath id="presentation_clip_path" clipPathUnits="userSpaceOnUse">
   <rect x="0" y="0" width="26238" height="26238"/>
  </clipPath>
  <clipPath id="presentation_clip_path_shrink" clipPathUnits="userSpaceOnUse">
   <rect x="26" y="26" width="26186" height="26186"/>
  </clipPath>
 </defs>
 <defs class="TextShapeIndex">
  <g ooo:slide="id1" ooo:id-list="id3 id4 id5 id6 id7 id8"/>
 </defs>
 <defs class="EmbeddedBulletChars">
  <g id="bullet-char-template-57356" transform="scale(0.00048828125,-0.00048828125)">
   <path d="M 580,1141 L 1163,571 580,0 -4,571 580,1141 Z"/>
  </g>
  <g id="bullet-char-template-57354" transform="scale(0.00048828125,-0.00048828125)">
   <path d="M 8,1128 L 1137,1128 1137,0 8,0 8,1128 Z"/>
  </g>
  <g id="bullet-char-template-10146" transform="scale(0.00048828125,-0.00048828125)">
   <path d="M 174,0 L 602,739 174,1481 1456,739 174,0 Z M 1358,739 L 309,1346 659,739 1358,739 Z"/>
  </g>
  <g id="bullet-char-template-10132" transform="scale(0.00048828125,-0.00048828125)">
   <path d="M 2015,739 L 1276,0 717,0 1260,543 174,543 174,936 1260,936 717,1481 1274,1481 2015,739 Z"/>
  </g>
  <g id="bullet-char-template-10007" transform="scale(0.00048828125,-0.00048828125)">
   <path d="M 0,-2 C -7,14 -16,27 -25,37 L 356,567 C 262,823 215,952 215,954 215,979 228,992 255,992 264,992 276,990 289,987 310,991 331,999 354,1012 L 381,999 492,748 772,1049 836,1024 860,1049 C 881,1039 901,1025 922,1006 886,937 835,863 770,784 769,783 710,716 594,584 L 774,223 C 774,196 753,168 711,139 L 727,119 C 717,90 699,76 672,76 641,76 570,178 457,381 L 164,-76 C 142,-110 111,-127 72,-127 30,-127 9,-110 8,-76 1,-67 -2,-52 -2,-32 -2,-23 -1,-13 0,-2 Z"/>
  </g>
  <g id="bullet-char-template-10004" transform="scale(0.00048828125,-0.00048828125)">
   <path d="M 285,-33 C 182,-33 111,30 74,156 52,228 41,333 41,471 41,549 55,616 82,672 116,743 169,778 240,778 293,778 328,747 346,684 L 369,508 C 377,444 397,411 428,410 L 1163,1116 C 1174,1127 1196,1133 1229,1133 1271,1133 1292,1118 1292,1087 L 1292,965 C 1292,929 1282,901 1262,881 L 442,47 C 390,-6 338,-33 285,-33 Z"/>
  </g>
  <g id="bullet-char-template-9679" transform="scale(0.00048828125,-0.00048828125)">
   <path d="M 813,0 C 632,0 489,54 383,161 276,268 223,411 223,592 223,773 276,916 383,1023 489,1130 632,1184 813,1184 992,1184 1136,1130 1245,1023 1353,916 1407,772 1407,592 1407,412 1353,268 1245,161 1136,54 992,0 813,0 Z"/>
  </g>
  <g id="bullet-char-template-8226" transform="scale(0.00048828125,-0.00048828125)">
   <path d="M 346,457 C 273,457 209,483 155,535 101,586 74,649 74,723 74,796 101,859 155,911 209,963 273,989 346,989 419,989 480,963 531,910 582,859 608,796 608,723 608,648 583,586 532,535 482,483 420,457 346,457 Z"/>
  </g>
  <g id="bullet-char-template-8211" transform="scale(0.00048828125,-0.00048828125)">
   <path d="M -4,459 L 1135,459 1135,606 -4,606 -4,459 Z"/>
  </g>
  <g id="bullet-char-template-61548" transform="scale(0.00048828125,-0.00048828125)">
   <path d="M 173,740 C 173,903 231,1043 346,1159 462,1274 601,1332 765,1332 928,1332 1067,1274 1183,1159 1299,1043 1357,903 1357,740 1357,577 1299,437 1183,322 1067,206 928,148 765,148 601,148 462,206 346,322 231,437 173,577 173,740 Z"/>
  </g>
 </defs>
 <defs class="TextEmbeddedBitmaps"/>
 <g>
  <g id="id2" class="Master_Slide">
   <g id="bg-id2" class="Background"/>
   <g id="bo-id2" class="BackgroundObjects"/>
  </g>
 </g>
 <g class="SlideGroup">
  <g>
   <g id="container-id1">
    <g id="id1" class="Slide" clip-path="url(#presentation_clip_path)">
     <g class="Page">
      <g class="com.sun.star.drawing.ClosedBezierShape">
       <g id="id3">
        <rect class="BoundingBox" stroke="none" fill="none" x="263" y="268" width="25727" height="25716"/>
        <path fill="rgb(255,255,255)" stroke="none" d="M 23366,307 C 22991,401 22692,588 22253,1004 L 21832,1396 21562,1296 C 21088,1115 20421,1009 19765,1009 18752,1009 18008,1185 17130,1636 L 16638,1888 16416,1712 C 15907,1308 15186,1168 14566,1349 14015,1507 13476,2028 13283,2584 13172,2918 13172,3556 13283,3878 13330,4013 13371,4136 13371,4148 13371,4159 13201,4171 12997,4171 12452,4171 11785,4393 11287,4751 11035,4932 9021,6905 5871,10067 L 854,15090 614,15594 C 146,16571 146,17549 614,18515 854,19007 878,19036 4057,22209 7453,25599 7429,25582 8278,25868 8723,26021 9707,26021 10152,25868 11018,25576 10831,25751 16282,20306 19625,16963 21452,15096 21586,14885 21891,14399 22043,13925 22078,13374 22096,13111 22119,12894 22125,12894 22131,12894 22260,12935 22412,12988 22827,13128 23495,13076 23899,12871 25029,12297 25345,10845 24555,9850 L 24379,9627 24642,9106 C 24783,8825 24970,8351 25058,8064 25345,7081 25304,5564 24970,4698 L 24870,4434 25274,4001 C 25836,3404 25983,3064 25989,2385 25989,1905 25971,1817 25801,1472 25444,746 24777,301 24004,272 23776,260 23489,277 23366,307 Z M 24232,1208 C 24952,1431 25310,2239 24982,2912 24935,3006 24677,3310 24408,3585 24139,3860 23904,4142 23887,4206 23863,4282 23922,4505 24033,4785 24297,5453 24402,6074 24355,6776 24314,7479 24209,7912 23928,8521 L 23711,8978 20509,5775 17300,2567 17458,2473 C 17751,2292 18412,2057 18858,1970 19724,1806 20602,1893 21498,2239 22072,2461 22043,2473 22775,1771 23430,1138 23676,1044 24232,1208 Z M 15579,2245 C 15795,2321 23828,10342 23975,10623 24191,11045 24068,11665 23700,11952 23465,12133 23143,12216 22816,12169 22534,12128 22529,12122 18383,7988 15983,5593 14203,3767 14156,3661 13998,3293 14115,2719 14402,2461 14707,2192 15198,2098 15579,2245 Z M 14174,5277 C 14543,5453 14783,5676 17687,8580 20608,11501 20813,11718 20994,12104 21176,12485 21188,12561 21188,13100 21188,14183 21597,13697 15790,19517 12417,22894 10626,24645 10421,24774 10233,24885 9935,24997 9660,25049 9256,25131 9174,25131 8770,25049 8495,24996 8196,24885 8009,24774 7810,24651 6621,23504 4631,21507 1299,18164 1317,18181 1194,17414 1153,17174 1153,16928 1194,16688 1316,15892 1117,16114 6627,10599 11914,5307 11949,5271 12587,5108 12716,5078 13032,5061 13296,5072 13688,5090 13852,5131 14174,5277 Z"/>
       </g>
      </g>
      <g class="com.sun.star.drawing.ClosedBezierShape">
       <g id="id4">
        <rect class="BoundingBox" stroke="none" fill="none" x="11840" y="7567" width="1884" height="1875"/>
        <path fill="rgb(255,255,255)" stroke="none" d="M 11978,7701 C 11720,7971 11790,8123 12481,8814 13020,9353 13137,9441 13301,9441 13547,9441 13723,9265 13723,9014 13723,8849 13635,8738 13090,8194 12563,7672 12434,7567 12282,7567 12171,7567 12054,7619 11978,7701 Z"/>
       </g>
      </g>
      <g class="com.sun.star.drawing.ClosedBezierShape">
       <g id="id5">
        <rect class="BoundingBox" stroke="none" fill="none" x="9792" y="9615" width="3147" height="3105"/>
        <path fill="rgb(255,255,255)" stroke="none" d="M 9929,9750 C 9648,10049 9700,10125 11042,11472 12119,12555 12306,12719 12465,12719 12834,12719 13045,12397 12881,12086 12834,11998 12272,11407 11633,10769 10562,9709 10450,9615 10263,9615 10122,9615 10011,9656 9929,9750 Z"/>
       </g>
      </g>
      <g class="com.sun.star.drawing.ClosedBezierShape">
       <g id="id6">
        <rect class="BoundingBox" stroke="none" fill="none" x="7751" y="11636" width="1920" height="1905"/>
        <path fill="rgb(255,255,255)" stroke="none" d="M 8067,11665 C 7997,11694 7897,11776 7845,11852 7657,12116 7716,12233 8384,12901 8917,13440 9040,13539 9198,13539 9432,13539 9613,13381 9660,13141 9696,12959 9666,12918 9063,12315 8407,11659 8284,11577 8067,11665 Z"/>
       </g>
      </g>
      <g class="com.sun.star.drawing.ClosedBezierShape">
       <g id="id7">
        <rect class="BoundingBox" stroke="none" fill="none" x="5701" y="13655" width="3169" height="3168"/>
        <path fill="rgb(255,255,255)" stroke="none" d="M 5871,13825 C 5777,13919 5701,14059 5701,14129 5701,14229 6052,14621 6978,15541 8366,16929 8424,16970 8717,16671 9016,16372 8981,16314 7587,14926 6673,14018 6269,13655 6175,13655 6105,13655 5965,13731 5871,13825 Z"/>
       </g>
      </g>
      <g class="com.sun.star.drawing.ClosedBezierShape">
       <g id="id8">
        <rect class="BoundingBox" stroke="none" fill="none" x="3695" y="15704" width="1892" height="1900"/>
        <path fill="rgb(255,255,255)" stroke="none" d="M 3846,15834 C 3565,16150 3641,16326 4379,17046 4877,17544 4959,17603 5152,17603 5410,17603 5586,17421 5586,17152 5586,17000 5486,16871 4953,16338 4426,15811 4291,15705 4145,15705 4033,15705 3922,15758 3846,15834 Z"/>
       </g>
      </g>
     </g>
    </g>
   </g>
  </g>
 </g>
</svg>